<?xml version="1.0" encoding="UTF-8"?>
<svg version="1.1" xmlns="http://www.w3.org/2000/svg" width="512" height="512">
<path d="M0 0 C1.01823853 0.00215515 2.03647705 0.0043103 3.08557129 0.00653076 C17.7097884 0.05623391 32.00304638 0.37042012 46.375 3.3125 C47.37160645 3.50585938 48.36821289 3.69921875 49.39501953 3.8984375 C88.01368568 11.52914208 124.14015454 27.25047736 155.375 51.3125 C156.18710937 51.93253906 156.99921875 52.55257812 157.8359375 53.19140625 C174.90108372 66.51514029 191.26144896 82.13175144 204.10107422 99.59423828 C205.39750666 101.34285682 206.72788718 103.06078803 208.06640625 104.77734375 C215.93067241 114.9920598 222.3161092 125.94975258 228.375 137.3125 C229.03846436 138.55314209 229.03846436 138.55314209 229.71533203 139.81884766 C241.23204842 161.72199262 248.9030584 186.01309889 253.375 210.3125 C253.53581055 211.11316895 253.69662109 211.91383789 253.86230469 212.73876953 C259.3544441 240.81662453 259.10896692 274.30227935 253.375 302.3125 C253.18164062 303.30910645 252.98828125 304.30571289 252.7890625 305.33251953 C244.67028127 346.42132055 227.30084885 383.51549494 201.375 416.3125 C200.56289063 417.35019531 199.75078125 418.38789063 198.9140625 419.45703125 C186.24907313 435.01858759 171.69874403 449.61464417 155.375 461.3125 C154.02974408 462.30180622 152.68470229 463.29140366 151.33984375 464.28125 C116.16613227 489.89565441 75.53560925 505.77286752 32.375 511.3125 C31.70779434 511.39982895 31.04058868 511.4871579 30.35316467 511.57713318 C24.6367952 512.27337492 18.99757373 512.48706148 13.2421875 512.515625 C12.2958847 512.52268463 11.34958191 512.52974426 10.37460327 512.53701782 C-28.77050628 512.76278019 -28.77050628 512.76278019 -45.625 509.3125 C-47.11990967 509.02246094 -47.11990967 509.02246094 -48.64501953 508.7265625 C-89.73382055 500.60778127 -126.82799494 483.23834885 -159.625 457.3125 C-160.66269531 456.50039063 -161.70039063 455.68828125 -162.76953125 454.8515625 C-178.33623494 442.18238389 -192.90286525 427.62451036 -204.625 411.3125 C-205.4887527 410.14261544 -206.35335469 408.9733575 -207.21875 407.8046875 C-222.36207742 387.1786757 -234.4442165 364.56952873 -242.625 340.3125 C-243.03806396 339.08998535 -243.03806396 339.08998535 -243.45947266 337.84277344 C-246.69755506 328.07192323 -249.22985473 318.19031263 -251.375 308.125 C-251.57375732 307.20033936 -251.77251465 306.27567871 -251.97729492 305.32299805 C-255.26999027 289.11638823 -256.00030278 273.1821298 -255.9375 256.6875 C-255.93534485 255.66926147 -255.9331897 254.65102295 -255.93096924 253.60192871 C-255.88126609 238.9777116 -255.56707988 224.68445362 -252.625 210.3125 C-252.33496094 208.81759033 -252.33496094 208.81759033 -252.0390625 207.29248047 C-244.41040781 168.68418872 -228.69757683 132.53083121 -204.625 101.3125 C-203.66013672 100.05953125 -203.66013672 100.05953125 -202.67578125 98.78125 C-188.57295377 80.82715922 -172.21896589 63.63892592 -153.625 50.3125 C-153.08327148 49.920625 -152.54154297 49.52875 -151.98339844 49.125 C-130.96297257 33.97334745 -108.19909835 21.60021655 -83.625 13.3125 C-82.40248535 12.89943604 -82.40248535 12.89943604 -81.15527344 12.47802734 C-71.38442323 9.23994494 -61.50281263 6.70764527 -51.4375 4.5625 C-50.51283936 4.36374268 -49.58817871 4.16498535 -48.63549805 3.96020508 C-32.42888823 0.66750973 -16.4946298 -0.06280278 0 0 Z M-42.625 19.3125 C-43.61129395 19.51649414 -44.59758789 19.72048828 -45.61376953 19.93066406 C-66.55558786 24.36085011 -86.34061217 31.04380808 -105.625 40.3125 C-106.38635254 40.67682129 -107.14770508 41.04114258 -107.93212891 41.41650391 C-163.50581387 68.38489124 -206.35793516 119.34911275 -227.26538086 177.03417969 C-234.67683878 198.58410609 -239.7020711 221.86732239 -239.828125 244.703125 C-239.83518463 245.56182693 -239.84224426 246.42052887 -239.84951782 247.30525208 C-240.11330826 273.45841773 -240.11330826 273.45841773 -236.625 299.3125 C-236.32698486 300.7680127 -236.32698486 300.7680127 -236.02294922 302.25292969 C-228.06667333 340.26426124 -212.40232238 376.21096939 -187.625 406.3125 C-187.1825293 406.85648437 -186.74005859 407.40046875 -186.28417969 407.9609375 C-175.11085548 421.63034611 -162.76017818 434.6835803 -148.625 445.3125 C-147.99432617 445.79251465 -147.36365234 446.2725293 -146.71386719 446.76708984 C-135.534988 455.23585883 -124.00077522 462.7130782 -111.625 469.3125 C-110.43777344 469.94816895 -110.43777344 469.94816895 -109.2265625 470.59667969 C-86.70833404 482.44789944 -61.74184697 490.37384225 -36.625 494.3125 C-35.46145996 494.49578857 -34.29791992 494.67907715 -33.09912109 494.86791992 C-22.05679431 496.43318746 -11.14122303 496.67054211 0 496.625 C0.92631226 496.62317719 1.85262451 496.62135437 2.80700684 496.61947632 C16.53888272 496.57399574 29.886656 496.08815802 43.375 493.3125 C44.25881348 493.14089355 45.14262695 492.96928711 46.05322266 492.79248047 C79.20105718 486.27474601 110.85646025 472.96963299 138.375 453.3125 C139.02033691 452.85649414 139.66567383 452.40048828 140.33056641 451.93066406 C150.13630874 444.95971184 159.07051182 437.3429015 167.68798828 428.95263672 C169.23730568 427.44636838 170.80158294 425.9578131 172.37109375 424.47265625 C178.9116221 418.15478418 184.54771823 411.38722309 190 404.13623047 C191.36106071 402.33098836 192.7418607 400.54226214 194.125 398.75390625 C216.47804761 369.49216774 230.02995947 335.18584476 237.375 299.3125 C237.55434082 298.4659082 237.73368164 297.61931641 237.91845703 296.74707031 C243.63486472 268.53401549 242.29709054 236.34647029 236.375 208.3125 C236.06949219 206.81227295 236.06949219 206.81227295 235.7578125 205.28173828 C228.22377219 169.23344819 211.78566877 134.75370731 188.375 106.3125 C187.9325293 105.76851563 187.49005859 105.22453125 187.03417969 104.6640625 C175.84707556 90.97779558 163.48613036 78.00394139 149.375 67.3125 C148.84680664 66.90257812 148.31861328 66.49265625 147.77441406 66.0703125 C109.58665101 36.48300268 60.7401067 16.37850721 11.984375 16.109375 C11.12567307 16.10231537 10.26697113 16.09525574 9.38224792 16.08798218 C-16.77149561 15.81932919 -16.77149561 15.81932919 -42.625 19.3125 Z " fill="#000000" transform="translate(255.625,-0.3125)"/>
<path d="M0 0 C1.16739212 -0.01052147 1.16739212 -0.01052147 2.35836792 -0.02125549 C4.85876306 -0.03867622 7.35892138 -0.04510859 9.859375 -0.046875 C11.14059235 -0.04788712 11.14059235 -0.04788712 12.44769287 -0.04891968 C25.07375449 -0.03305444 37.25205086 0.3967395 49.609375 3.203125 C50.83164795 3.46851074 50.83164795 3.46851074 52.07861328 3.73925781 C78.92317874 9.65476815 104.16497204 20.20514183 126.609375 36.203125 C127.19364258 36.61916992 127.77791016 37.03521484 128.37988281 37.46386719 C136.52855013 43.34564709 143.95936286 49.92883201 151.21240234 56.86914062 C152.40368746 58.00671173 153.60867264 59.12990724 154.81640625 60.25 C160.63588067 65.79687175 165.46643742 72.12129607 170.31933594 78.50732422 C171.4611567 80.00828694 172.61632597 81.49907454 173.7734375 82.98828125 C193.93893647 109.62120121 206.32481461 143.07808507 210.05078125 176.1171875 C209.44759996 180.33411867 207.88602734 181.55271273 204.609375 184.203125 C201.41551208 184.82458496 201.41551208 184.82458496 197.77124023 184.81835938 C197.1039389 184.82390839 196.43663757 184.8294574 195.74911499 184.83517456 C193.55465718 184.84693653 191.36228044 184.82273811 189.16796875 184.796875 C187.63770136 184.79516305 186.10743103 184.79523044 184.5771637 184.79699707 C181.37513042 184.79534589 178.17379901 184.77668448 174.97192383 184.74511719 C170.87045815 184.70540588 166.76990972 184.70107688 162.66828823 184.70858002 C159.51035682 184.7116511 156.35263112 184.69952496 153.19474983 184.68244934 C151.68250888 184.67542585 150.17024462 184.67229402 148.65798759 184.67314148 C146.5442689 184.67134115 144.43164437 184.64994291 142.31811523 184.62304688 C141.11630112 184.61462769 139.914487 184.6062085 138.67625427 184.59753418 C135.33505293 184.16784642 133.94208763 183.60043435 131.609375 181.203125 C130.50564122 177.22968339 130.19393917 175.11312728 131.921875 171.328125 C133.609375 169.203125 133.609375 169.203125 135.609375 168.203125 C137.39669424 168.1123012 139.18742989 168.08558701 140.97705078 168.08959961 C142.09806183 168.08967514 143.21907288 168.08975067 144.37405396 168.08982849 C145.58866302 168.09498978 146.80327209 168.10015106 148.0546875 168.10546875 C149.91491043 168.10759117 149.91491043 168.10759117 151.81271362 168.10975647 C155.11055633 168.11441404 158.40835046 168.12340061 161.70617676 168.13446045 C165.07103887 168.14468769 168.43590808 168.14925691 171.80078125 168.15429688 C178.40366493 168.16534231 185.00651599 168.18209253 191.609375 168.203125 C188.01116512 151.99952806 188.01116512 151.99952806 182.984375 136.203125 C182.48405762 134.857948 182.48405762 134.857948 181.97363281 133.4855957 C164.57058057 88.25899876 128.91702327 51.68357244 84.74072266 32.03686523 C39.51569551 12.64212579 -11.10283699 11.42258314 -57.06347656 29.23925781 C-101.40822239 47.29827898 -137.68259284 81.45708778 -157.390625 125.203125 C-159.11974962 129.3545118 -160.71987554 133.54279099 -162.265625 137.765625 C-162.80135132 139.21654541 -162.80135132 139.21654541 -163.34790039 140.69677734 C-165.53330615 146.92149759 -167.12243222 153.17522464 -168.51611328 159.61303711 C-168.69783585 160.4419622 -168.87955841 161.2708873 -169.06678772 162.12493134 C-169.51047992 164.15046881 -169.95089053 166.17672464 -170.390625 168.203125 C-169.80851598 168.2012264 -169.22640695 168.1993278 -168.62665826 168.19737166 C-134.13902273 168.08552212 -99.65142337 167.99971294 -65.16364505 167.94779835 C-61.02421684 167.94154469 -56.88478899 167.93507309 -52.74536133 167.9284668 C-51.50921414 167.92649947 -51.50921414 167.92649947 -50.24809428 167.9244924 C-36.89803789 167.90272584 -23.54808897 167.86329747 -10.19809637 167.81736102 C3.49654135 167.77063109 17.19112272 167.74283695 30.8858369 167.73268253 C39.33873512 167.72581615 47.7913296 167.7041166 56.24413434 167.66354267 C62.03770027 167.637147 67.83110878 167.62911675 73.62473049 167.63561811 C76.96939194 167.63882616 80.31309287 167.63113382 83.65773392 167.60709763 C87.28227576 167.58232079 90.90550458 167.58816536 94.53007507 167.60185242 C95.5894126 167.58728821 96.64875012 167.572724 97.74018878 167.55771846 C104.85531872 167.63063883 104.85531872 167.63063883 108.77619648 170.60740376 C110.609375 173.203125 110.609375 173.203125 111.01953125 175.3359375 C110.90480469 175.99335938 110.79007812 176.65078125 110.671875 177.328125 C110.58035156 177.99070313 110.48882812 178.65328125 110.39453125 179.3359375 C109.31312773 181.90763344 107.96586831 182.73767991 105.609375 184.203125 C103.26525789 184.58147383 103.26525789 184.58147383 100.61773014 184.58623505 C99.60614812 184.59529169 98.5945661 184.60434833 97.55233008 184.61367941 C96.44290798 184.60835148 95.33348589 184.60302356 94.19044495 184.59753418 C93.01040844 184.60362528 91.83037194 184.60971639 90.61457676 184.61599207 C87.33811141 184.62977681 84.06196352 184.63006855 80.78548372 184.6246171 C77.25233455 184.62195008 73.71924989 184.63647247 70.18612671 184.64871216 C63.26405789 184.66978193 56.3420728 184.67430614 49.41997571 184.67252427 C43.79462633 184.67121748 38.16930312 184.67501655 32.54395866 184.68244934 C30.92458866 184.6845485 29.30521866 184.6866461 27.68584865 184.68874216 C26.87988591 184.68978569 26.07392316 184.69082922 25.2435373 184.69190437 C9.99565436 184.71081281 -5.25218048 184.70975462 -20.50007028 184.70293504 C-34.45451099 184.69735849 -48.40876816 184.71818862 -62.36316597 184.75129551 C-76.68623976 184.78501377 -91.00922559 184.80020322 -105.33233982 184.79557848 C-113.37583241 184.79333197 -121.41915533 184.79860333 -129.46261406 184.82347107 C-136.30990689 184.84446015 -143.15693704 184.84810016 -150.00424057 184.82917148 C-153.49864855 184.81999878 -156.99256645 184.81891646 -160.48693657 184.83952713 C-164.27331404 184.85759963 -168.05837503 184.84505745 -171.8447113 184.82458496 C-173.50549836 184.84336173 -173.50549836 184.84336173 -175.19983667 184.86251783 C-182.6213474 184.77613021 -182.6213474 184.77613021 -186.58441257 181.82419586 C-190.33128311 176.38695434 -188.07119144 169.90166184 -186.94335938 163.77246094 C-179.02966624 122.96652588 -159.92720022 88.07167615 -131.390625 58.203125 C-130.71644531 57.47609375 -130.04226562 56.7490625 -129.34765625 56 C-115.59957325 41.57770397 -97.92385169 30.40827587 -80.390625 21.203125 C-79.72579102 20.85362793 -79.06095703 20.50413086 -78.37597656 20.14404297 C-54.75511308 7.93170057 -26.66366388 0.16134594 0 0 Z " fill="#000000" transform="translate(245.390625,55.796875)"/>
<path d="M0 0 C2.48373784 3.72560676 2.14321931 7.06616793 1.609375 11.4140625 C0.96753259 14.49598367 0.05719123 17.43457091 -0.953125 20.4140625 C-1.22415039 21.23583984 -1.49517578 22.05761719 -1.77441406 22.90429688 C-11.97120677 53.22664501 -27.93643907 79.90015024 -50.05664062 103.01708984 C-51.19421173 104.20837496 -52.31740724 105.41336014 -53.4375 106.62109375 C-67.18932201 121.04875317 -84.86278427 132.19019761 -102.390625 141.4140625 C-103.03950684 141.75824219 -103.68838867 142.10242188 -104.35693359 142.45703125 C-120.52823327 150.90478549 -138.14303101 156.46074697 -156.015625 159.9765625 C-157.2845459 160.22937988 -157.2845459 160.22937988 -158.57910156 160.48730469 C-163.41058246 161.34958031 -167.56404833 161.69519087 -172.390625 160.4140625 C-174.59375 158.80322266 -174.59375 158.80322266 -176.390625 156.4140625 C-176.65478516 153.18920898 -176.65478516 153.18920898 -176.3046875 149.34765625 C-176.24399078 148.64773056 -176.18329407 147.94780487 -176.12075806 147.22666931 C-175.32011684 138.60436559 -174.07631856 130.03360928 -172.765625 121.4765625 C-172.63501678 120.61433075 -172.50440857 119.752099 -172.36984253 118.86373901 C-157.52889037 21.48836146 -157.52889037 21.48836146 -129.015625 -2.73828125 C-98.02845222 -24.54919304 -31.12405047 -20.64765439 0 0 Z M-124.265625 15.1640625 C-150.56928354 47.45834484 -154.49269584 103.42753695 -159.390625 143.4140625 C-151.24466302 142.26751409 -143.61286773 140.50164642 -135.828125 137.8515625 C-134.79163818 137.50005127 -133.75515137 137.14854004 -132.68725586 136.78637695 C-85.70999472 120.43469725 -47.68839897 85.38334365 -26.09765625 40.765625 C-21.65309206 31.2380678 -18.25472427 21.52102819 -15.390625 11.4140625 C-24.7456291 8.18108314 -34.13476486 5.68027543 -43.828125 3.6640625 C-44.83359375 3.45370361 -45.8390625 3.24334473 -46.875 3.02661133 C-71.49171362 -1.95582781 -104.7961079 -3.45895386 -124.265625 15.1640625 Z " fill="#000000" transform="translate(449.390625,293.5859375)"/>
<path d="M0 0 C33.15705686 30.5275804 37.13385861 96.21158281 42.76953125 138.484375 C42.88965576 139.37930664 43.00978027 140.27423828 43.13354492 141.19628906 C44.84114983 154.82015002 44.84114983 154.82015002 42.33203125 158.734375 C36.50957502 162.46671874 30.05033988 161.18149943 23.64453125 159.921875 C22.7426709 159.74470947 21.84081055 159.56754395 20.91162109 159.38500977 C-4.95613264 153.93513343 -30.50688974 143.64541706 -52.10546875 128.296875 C-53.10191406 127.59175781 -54.09835938 126.88664063 -55.125 126.16015625 C-72.28937137 113.62994019 -87.45468298 99.39460364 -100.10546875 82.296875 C-100.50507812 81.75804687 -100.9046875 81.21921875 -101.31640625 80.6640625 C-115.71410313 61.04840836 -133.84211529 31.78007659 -134.35546875 6.796875 C-134.38125 6.0440625 -134.40703125 5.29125 -134.43359375 4.515625 C-134.00110563 1.59118155 -133.13093005 0.45680457 -131.10546875 -1.703125 C-128.25244141 -2.91992188 -128.25244141 -2.91992188 -124.76953125 -3.921875 C-123.82841492 -4.19717041 -123.82841492 -4.19717041 -122.86828613 -4.47802734 C-120.82656091 -5.06916211 -118.77933245 -5.63727164 -116.73046875 -6.203125 C-115.32142802 -6.6021295 -113.91241121 -7.00121848 -112.50341797 -7.40039062 C-77.70654375 -17.13432791 -30.54597663 -24.70880484 0 0 Z M-117.10546875 11.296875 C-102.22408221 59.72135755 -71.9069124 100.34834705 -26.92285156 124.83129883 C-10.355882 133.54632702 8.12652743 141.43079919 26.89453125 143.296875 C20.53980744 70.94000045 20.53980744 70.94000045 -12.78515625 10.82421875 C-41.2179203 -7.89162425 -87.40087578 -1.10465153 -117.10546875 11.296875 Z " fill="#000000" transform="translate(195.10546875,293.703125)"/>
<path d="M0 0 C7.53109077 6.35286516 12.78539943 12.81918798 15.6875 22.3125 C15.97367188 23.24642578 15.97367188 23.24642578 16.265625 24.19921875 C18.35748539 34.67788979 16.69707453 45.31707209 11.40234375 54.5546875 C5.21979501 63.40658179 -3.09417106 70.2750108 -13.66015625 72.89453125 C-25.97914663 74.83581545 -37.05624086 73.27864415 -47.21484375 65.96875 C-55.67382516 59.28977771 -61.33450528 51.1015621 -63.3125 40.3125 C-64.27669559 28.46031116 -62.77631995 17.50966683 -55.0078125 8.12109375 C-40.66979754 -7.17499133 -18.35792633 -12.89725157 0 0 Z M-43.12890625 19.50390625 C-47.10454172 25.57888719 -48.41968634 31.17966496 -47.3125 38.3125 C-44.92367212 45.7222902 -40.71221758 50.94847788 -34.3125 55.3125 C-28.63250198 58.15249901 -22.01991466 58.26652527 -15.9140625 56.6953125 C-8.5186921 53.84317306 -4.24730847 48.68281152 -0.375 41.9375 C1.61801972 35.13778567 1.59017568 29.5702288 -1.375 23.0625 C-5.26630404 16.08007557 -10.61855081 11.65980653 -18.3125 9.3125 C-28.26871863 7.79888568 -37.03384221 11.47499753 -43.12890625 19.50390625 Z " fill="#000000" transform="translate(279.3125,254.6875)"/>
<path d="M0 0 C2.10084701 -0.01718633 4.2001085 -0.06106997 6.30053711 -0.10522461 C7.64232244 -0.1153545 8.98412112 -0.12386968 10.32592773 -0.13061523 C12.15281128 -0.15248901 12.15281128 -0.15248901 14.01660156 -0.17480469 C17.91167055 0.38163374 19.54729147 1.54502018 22.30639648 4.29516602 C22.97045898 6.29516602 22.97045898 6.29516602 22.93139648 8.29516602 C22.94428711 8.95516602 22.95717773 9.61516602 22.97045898 10.29516602 C21.92715788 13.43734345 20.0308543 14.49650377 17.30639648 16.29516602 C14.04833984 16.81274414 14.04833984 16.81274414 10.39624023 16.82641602 C8.41720703 16.83415039 8.41720703 16.83415039 6.39819336 16.84204102 C5.71619873 16.83366211 5.0342041 16.8252832 4.33154297 16.81665039 C2.24581076 16.79518572 0.16350815 16.8164957 -1.92211914 16.84204102 C-3.24018555 16.83688477 -4.55825195 16.83172852 -5.91625977 16.82641602 C-7.72235718 16.81964844 -7.72235718 16.81964844 -9.56494141 16.81274414 C-13.28286204 16.19768431 -14.4400292 15.25910249 -16.69360352 12.29516602 C-17.86951325 8.61064883 -18.0284169 7.01262327 -16.38110352 3.48266602 C-12.53665968 -1.50087229 -5.77895385 0.03295342 0 0 Z " fill="#000000" transform="translate(433.693603515625,255.704833984375)"/>
<path d="M0 0 C1.9790332 -0.00773438 1.9790332 -0.00773438 3.99804688 -0.015625 C4.6800415 -0.00724609 5.36203613 0.00113281 6.06469727 0.00976562 C8.15042947 0.0312303 10.23273208 0.00992031 12.31835938 -0.015625 C13.63642578 -0.01046875 14.95449219 -0.0053125 16.3125 0 C18.11859741 0.00676758 18.11859741 0.00676758 19.96118164 0.01367188 C23.67910227 0.62873171 24.83626943 1.56731353 27.08984375 4.53125 C28.26575349 8.21576718 28.42465713 9.81379275 26.77734375 13.34375 C25.08984375 15.53125 25.08984375 15.53125 23.08984375 16.53125 C18.86220271 16.78914144 14.63074431 16.80226954 10.39624023 16.82641602 C8.29539323 16.84360234 6.19613174 16.88748599 4.09570312 16.93164062 C2.7539178 16.94177052 1.41211911 16.9502857 0.0703125 16.95703125 C-1.75657104 16.97890503 -1.75657104 16.97890503 -3.62036133 17.0012207 C-7.51543032 16.44478228 -9.15105124 15.28139584 -11.91015625 12.53125 C-12.57421875 10.53125 -12.57421875 10.53125 -12.53515625 8.53125 C-12.54804687 7.87125 -12.5609375 7.21125 -12.57421875 6.53125 C-10.64854148 0.73156317 -5.3938495 0.02019223 0 0 Z " fill="#000000" transform="translate(67.91015625,255.46875)"/>
</svg>
