<svg xmlns="http://www.w3.org/2000/svg" viewBox="0 0 512 512" id="technical-support">
  <path fill-rule="evenodd" d="M303.458 47.497a203.41 203.41 0 0 1 59.563 24.694l38.705-17.19 45.618 45.616-17.185 38.693a203.447 203.447 0 0 1 24.698 59.579l39.488 15.199V278.6l-39.497 15.204a203.422 203.422 0 0 1-24.694 59.563l17.19 38.705-45.616 45.618-38.693-17.185a203.757 203.757 0 0 1-36.12 17.594v-64.404c44.639-24.908 74.829-72.595 74.829-127.349 0-80.5-65.244-145.744-145.744-145.744s-145.744 65.244-145.744 145.744c0 54.754 30.19 102.441 74.829 127.349v64.393a203.857 203.857 0 0 1-36.107-17.589l-38.705 17.19-45.618-45.616L81.84 353.38a203.45 203.45 0 0 1-24.697-59.58l-39.488-15.199v-64.512l39.494-15.201a203.374 203.374 0 0 1 24.694-59.568l-17.187-38.701L110.272 55l38.705 17.19a203.47 203.47 0 0 1 59.564-24.694L223.744 8h64.511l15.203 39.497zm47.759 198.848c0-37.112-21.234-69.263-52.214-84.972v95.734l-21.502 12.414L256 281.935l-21.501-12.414-21.502-12.414v-95.734c-30.98 15.709-52.215 47.86-52.215 84.972 0 39.52 24.078 73.414 58.363 87.82V494c0 5.508 4.492 10 10 10h53.71c5.508 0 10-4.492 10-10V334.165c34.285-14.405 58.362-48.3 58.362-87.82z" clip-rule="evenodd"></path>
</svg>
